Patient4_TMGait_0pt7_01_left_30_EMG.mot
version=1
nRows=20
nColumns=33
inDegrees=no
endheader
time	1LAddLong	2LGlutMax	3LGlutMed	4LIliopsoas	5LSemiMemb	6LBicFemLong	7LRecFem	8LVastMed	9LVastLat	10LGasMed	11LTibAnt	12lTibPost	13LPeroneusLong	14LSol	15LExtDigLong	16LFlexDigLong	17RAddLong	18RGlutMax	19RGlutMed	20RIliopsoas	21RSemiMemb	22RBicFemLong	23RRecFem	24RVastMed	25RVastLat	26RGasMed	27RTibAnt	28RTibPost	29RPeroneusLong	30RSol	31RExtDigLong	32RFlexDigLong
35.435	0.000305	-0.12146	0.1207	-0.009155	-0.007324	0.023956	-0.11887	0.00351	-0.048523	-0.054321	0.077515	0.012207	0.051422	-0.046997	-0.010071	-0.004425	-0.14877	-0.24033	1.6606	-0.098877	0.46188	-0.14297	-0.18494	0.34821	0.29999	0.00824	-0.28046	-0.018005	0.25085	-0.068359	-0.003052	0.002747
35.436	-0.003967	-0.044556	0.13886	-0.005493	-0.002441	0.005951	-0.14847	0.002594	-0.057068	-0.053406	0.071106	0.013428	0.10605	0.050201	0.034332	0.011749	-0.17242	-0.11993	1.2468	-0.061646	0.5484	-0.0737	-0.10117	0.44693	0.1651	0.009308	-0.59662	-0.015717	0.054321	-0.031738	-0.002899	-0.00946
35.437	-0.016327	0	0.11185	0.006256	-0.010376	0.038147	-0.16342	-0.00351	-0.047455	-0.041504	0.011902	0.014801	0.10086	-0.044556	-0.003815	-0.002899	-0.019226	-0.08255	0.71655	-0.020752	0.73669	0.13275	0.25421	0.26657	-0.29129	0.007477	-0.63324	-0.015259	-0.1889	-0.000153	-0.002289	0.00351
35.438	-0.011597	-0.002594	0.14526	0.000305	-0.019836	0.06134	-0.1622	0.001221	-0.050507	-0.026855	0.011292	0.010223	-0.00061	-0.053406	-0.12146	-0.002136	0.074158	-0.16998	0.018463	0.024567	0.49805	0.47806	0.40802	0.12909	-0.63995	0.009308	-0.54688	-0.018921	-0.058136	0.048981	0	0.000458
35.439	-0.006256	-0.02243	0.17807	0.030518	-0.013275	0.001831	-0.16602	0.012054	-0.029755	-0.026245	-0.11658	-0.006714	-0.001831	-0.093384	-0.018616	0.006104	0.1088	-0.39291	-0.39597	-0.032959	0.25986	0.16007	0.45212	0.057831	-0.61569	0.006104	-0.32547	-0.025787	0.060425	0.19134	0.001526	-0.004272
35.44	-0.006866	-0.042877	0.21423	0.035248	0.004578	-0.054474	-0.17242	-0.001984	-0.029144	-0.007019	-0.16495	0.001526	0.005951	-0.15274	0.022888	-0.005188	0.10315	-0.65887	-0.63141	-0.05127	-0.085907	-0.16312	0.37949	0.047913	-0.46814	0.005798	-0.21606	-0.021515	0.099792	0.20447	-0.000916	0.005035
35.441	-0.003662	-0.066833	0.25192	0.032501	0.031281	-0.11398	-0.16586	-0.001068	-0.03479	0.008698	-0.078888	-0.002594	-0.021973	-0.075836	0.079193	-0.000153	0.00885	-0.74417	-0.67078	-0.05188	-0.03418	-0.20905	-0.1651	-0.30411	-0.43167	-0.00412	-0.28183	-0.022888	-0.042114	0.1181	-0.000458	0.003052
35.442	-0.007019	-0.017395	0.26825	0.024109	0.016632	-0.078278	-0.17242	0.000458	-0.039673	-0.013885	-0.032501	0.012207	0.031738	0.031128	0.27466	0.009918	0.01297	-0.6543	-0.75272	-0.051117	0.37445	-0.24506	-0.70328	-0.72449	-0.19272	-0.00351	-0.31891	-0.028992	0.011902	0.20798	-0.001068	-0.000153
35.443	0.00412	-0.056	0.27542	-0.007172	-0.009766	-0.023956	-0.18478	0.004578	-0.061951	-0.005341	-0.089264	0.011749	0.053864	0.11765	0.3981	-0.000458	-0.046082	-0.72967	-0.55313	-0.034637	0.55115	-0.23743	-1.3519	-0.93842	-0.00473	-0.006561	-0.2095	-0.025787	0.20615	0.3186	0.000916	0.000153
35.444	0.000458	-0.044708	0.30014	-0.013123	-0.02121	0.025482	-0.18585	0.005798	-0.063171	0.009155	0.016174	0.008392	0.006714	0.068512	0.93506	-0.003357	0.022888	-0.79392	-0.56427	-0.017242	0.37445	-0.31967	-1.3004	-0.54199	0.2002	-0.00824	-0.015869	-0.026398	0.1329	0.14221	-0.003967	0.003052
35.445	-0.000458	-0.052795	0.31494	-0.001068	-0.048828	0.050354	-0.17944	0.007019	-0.045319	0.012512	0.15793	0.003357	-0.044556	-0.011292	0.18341	-0.009155	0.10468	-0.66299	-0.6427	-0.16495	0.35446	-0.31647	-0.78415	-0.51453	0.12558	-0.004425	0.053864	-0.020599	0.089874	0.047913	0.001984	-0.004578
35.446	-0.003967	-0.052338	0.31464	0.000763	-0.037079	0.059052	-0.18326	0.005646	-0.037994	0.034485	0.14557	-0.002289	-0.11231	0.066986	0.25543	0.004883	0.15167	-0.43716	-0.78293	-0.17731	0.28168	-0.31799	-0.37918	-0.3566	0.018921	-0.004425	0.061188	-0.026093	-0.23178	0.032349	0	-0.006104
35.447	0.000916	-0.053558	0.34668	0.011292	-0.018311	0.009613	-0.18112	0.006409	-0.048676	0.009766	-0.073547	0.000458	-0.11383	0.10864	-0.50568	0.002136	0.12741	-0.26977	-0.4805	-0.028534	-0.028839	-0.36667	-0.19058	-0.42389	-0.015106	0.000305	0.1268	-0.02655	-0.7515	0.088654	-0.00061	0.008545
35.448	-0.002136	-0.050049	0.38086	0.01297	0.009003	-0.050201	-0.18509	0.007019	-0.045471	-0.043182	-0.18021	-0.007324	-0.019684	0.083008	-0.032806	0.00885	0.071259	-0.21866	0.21042	0.20813	-0.28473	-0.21774	-0.000458	-0.45639	-0.048981	-0.003052	0.20294	-0.026093	-0.96451	0.090637	-0.001984	0.006714
35.449	-0.001526	-0.058746	0.37445	-0.000763	0.027008	-0.083313	-0.20172	0.005646	-0.035706	-0.040588	-0.31433	-0.006104	0.066071	0.103	-0.053864	0.009155	-0.059204	-0.16571	0.13153	0.40894	-0.14221	0.080872	-0.033417	-0.23468	-0.066681	-0.013885	0.3006	-0.019989	-0.2887	0.077667	0.003052	-0.010223
35.45	-0.005188	-0.081177	0.39444	-0.020447	0.014038	-0.084839	-0.21942	0.003815	-0.046997	-0.00061	0.037537	0.001526	0.079041	0.061035	0.38544	-0.001526	-0.087738	-0.15945	-0.31601	0.29327	0.006866	0.1413	-0.08728	0.16769	-0.28427	-0.006104	0.32913	-0.019531	0.92575	0.030212	0.002899	-0.010529
35.451	-0.002594	-0.11475	0.38681	-0.020447	0.018158	-0.030823	-0.22873	0.001678	-0.037689	-0.019836	0.23575	0.008545	0.22354	0.008545	-0.37643	0.000763	-0.14481	0.044098	-0.69702	0.20676	0.46707	0.18036	-0.29846	0.42709	-0.27771	-0.00412	0.39566	-0.01236	0.54672	-0.013885	-0.002899	-0.006409
35.452	0.007172	-0.091553	0.40161	-0.011749	-0.001678	0.041656	-0.24094	0.004883	-0.05249	-0.000916	0.24048	0.010376	0.13947	-0.055389	-0.4863	-0.002289	-0.16998	0.039215	-0.23895	0.043945	0.73318	0.20081	-0.29587	0.60684	-0.19898	0.001221	0.062256	-0.019226	0.21179	-0.044403	0.009155	-0.007019
35.453	0.004425	-0.085602	0.40573	-0.002747	-0.014954	0.052643	-0.26535	0	-0.059204	-0.00473	0.10666	0.018158	0.066223	-0.027466	-0.34943	-0.025787	-0.034485	-0.12543	-0.92697	0.028992	0.59006	-0.003815	0.034637	0.87387	-0.081787	-0.003357	-0.070343	-0.020905	-0.070953	0.037537	-0.001221	-0.009003
35.454	0.012207	-0.11292	0.41412	0.018768	-0.003357	-0.010376	-0.26169	0.003052	-0.053101	-0.010071	0.018616	0.024261	0.03479	0.045166	-0.3302	-0.018311	0.065765	-0.16327	-0.43778	0.010834	0.3833	-0.091858	0.32593	0.74692	0.25711	-0.007477	0.026703	-0.020905	-0.069122	-0.016632	0.001068	-0.005035
